<svg xmlns="http://www.w3.org/2000/svg" width="59.57" height="59.56" viewBox="0 0 59.57 59.56">
  <defs>
    <style>
      .cls-1 {
        fill: #d1bc9d;
        fill-rule: evenodd;
      }
    </style>
  </defs>
  <path id="icon2" class="cls-1" d="M1016.51,2381.76l-0.01.01c-0.02-.02-0.03-0.05-0.05-0.07a5.842,5.842,0,0,1-.26-7.97h3.43a0.96,0.96,0,0,0,.96-0.96v-3.84a0.96,0.96,0,0,0-.96-0.96h-7.69a0.952,0.952,0,0,0-.68.28l-7.68,7.69a0.942,0.942,0,0,0,0,1.35,0.957,0.957,0,0,0,.67.29,2.883,2.883,0,0,1,2.89,2.88v1.58a21.215,21.215,0,0,0-4.81,13.4v31.13a0.96,0.96,0,0,0,.96.96h17.3a0.96,0.96,0,0,0,.96-0.96v-31.13a21.233,21.233,0,0,0-4.9-13.53Zm0.22-11.87h1.92v1.92h-1.92v-1.92Zm-10.56,6.16,6.16-6.16h2.48v2.54a7.745,7.745,0,0,0-.97,8.99h-4.79v-0.96A4.819,4.819,0,0,0,1006.17,2376.05Zm13.45,49.56h-15.38v-1.92h15.38v1.92Zm0-14.41h-7.69v-1.92h7.69v1.92Zm0-3.84h-7.69v-3.85h7.69v3.85Zm0-11.92v6.15h-8.65a0.96,0.96,0,0,0-.96.96v9.61a0.96,0.96,0,0,0,.96.96h8.65v8.65h-15.38v-22.1h3.85a5.761,5.761,0,0,0,5.76-5.76,3.843,3.843,0,0,1,3.84-3.85h1.14A19.244,19.244,0,0,1,1019.62,2395.44Zm-1.93-7.3a5.77,5.77,0,0,0-5.76,5.77,3.841,3.841,0,0,1-3.84,3.84h-3.85v-2.31a19.268,19.268,0,0,1,4.31-12.1h6.76a19.055,19.055,0,0,1,2.84,4.8h-0.46Zm21.14,8.65a166.011,166.011,0,0,1,9.61-16.33,6.784,6.784,0,0,0-4.97-6.49,4.4,4.4,0,0,0,.16-1.2,4.8,4.8,0,0,0-9.6,0h1.92a2.88,2.88,0,0,1,5.76,0,2.775,2.775,0,0,1-.41,1.46l-0.79,1.33,1.55,0.11a4.8,4.8,0,0,1,.71,9.47l-1.66.37,1.18,1.23a4.806,4.806,0,1,1-8.26,3.32h-1.93A6.745,6.745,0,0,0,1038.83,2396.79Zm-13.02-25.84,5.76,2.88-0.86,1.72-5.76-2.88Zm-1.67,3.06,7.68,7.69-1.36,1.36-7.68-7.69Zm9.89,1.64h1.92v1.93h-1.92v-1.93Zm1.92,3.85h1.92v1.92h-1.92v-1.92Zm-1.92,3.84h1.92v1.92h-1.92v-1.92Zm19.19,15.37a15.486,15.486,0,0,0-7.69,2.06,5.817,5.817,0,0,1-5.78-.03,15.441,15.441,0,0,0-7.65-2.03c-4.76,0-8.64,5.6-8.64,12.49v3.84c0,6.89,3.88,12.49,8.66,12.49a15.486,15.486,0,0,0,7.69-2.06,5.811,5.811,0,0,1,5.79.04,15.5,15.5,0,0,0,7.64,2.02c4.77,0,8.65-5.6,8.65-12.49v-3.84C1061.89,2404.31,1058.01,2398.71,1053.22,2398.71Zm-21.09,1.92a13.6,13.6,0,0,1,6.73,1.81,7.732,7.732,0,0,0,7.69-.04,13.548,13.548,0,0,1,6.69-1.77c2.44,0,4.57,2.05,5.75,5.11a7.4,7.4,0,0,0-5.77-3.19,15.5,15.5,0,0,0-7.69,2.07,5.817,5.817,0,0,1-5.78-.04,15.441,15.441,0,0,0-7.65-2.03,7.4,7.4,0,0,0-5.74,3.18C1027.54,2402.68,1029.68,2400.63,1032.13,2400.63Zm21.09,24.98a13.64,13.64,0,0,1-6.74-1.81,7.512,7.512,0,0,0-3.79-1,7.852,7.852,0,0,0-3.9,1.04,13.492,13.492,0,0,1-6.69,1.77c-3.7,0-6.72-4.74-6.72-10.57s3.02-10.57,6.74-10.57a13.612,13.612,0,0,1,6.74,1.81,7.757,7.757,0,0,0,7.69-.03,13.425,13.425,0,0,1,6.69-1.78c3.71,0,6.72,4.75,6.72,10.57S1056.95,2425.61,1053.22,2425.61Zm-4.78-10.57a2.885,2.885,0,1,0,2.88,2.88A2.883,2.883,0,0,0,1048.44,2415.04Zm0,3.84a0.96,0.96,0,1,1,.96-0.96A0.96,0.96,0,0,1,1048.44,2418.88Zm-15.38-2.88a3.845,3.845,0,1,0,3.85,3.85A3.843,3.843,0,0,0,1033.06,2416Zm0,5.77a1.925,1.925,0,1,1,1.93-1.92A1.92,1.92,0,0,1,1033.06,2421.77Zm21.14-14.41a2.88,2.88,0,1,0,2.88,2.88A2.881,2.881,0,0,0,1054.2,2407.36Zm0,3.84a0.96,0.96,0,1,1,.96-0.96A0.96,0.96,0,0,1,1054.2,2411.2Zm-24.02-2.88h1.92v1.92h-1.92v-1.92Zm3.85,1.92h1.92v1.92h-1.92v-1.92Zm3.84-1.92h1.92v1.92h-1.92v-1.92Zm0,3.84h1.92v1.92h-1.92v-1.92Z" transform="translate(-1002.31 -2367.97)"/>
</svg>
