<svg xmlns="http://www.w3.org/2000/svg" width="49.72" height="59.56" viewBox="0 0 49.72 59.56">
  <defs>
    <style>
      .cls-1 {
        fill: #d1bc9d;
        fill-rule: evenodd;
      }
    </style>
  </defs>
  <path id="icon3" class="cls-1" d="M1320.3,2427.49a1.064,1.064,0,0,0,.56,0c24.29-7.08,24.57-29.52,24.57-29.74V2376.9a0.978,0.978,0,0,0-.68-0.94l-23.85-7.94a0.971,0.971,0,0,0-.63,0l-23.86,7.94a0.991,0.991,0,0,0-.68.94v20.85c0,0.22.29,22.66,24.57,29.74h0Zm-22.58-49.87,21.87-7.28v3.58a1,1,0,1,0,1.99,0v-3.58l21.86,7.28v20.13c0,0.84-.31,20.4-21.86,27.43v-3.61a1,1,0,0,0-1.99,0v3.61c-21.55-7.03-21.87-26.59-21.87-27.43v-20.13Zm2.98,6.23a0.994,0.994,0,0,0,1-.99v-2.38l4.35-1.45a1,1,0,0,0-.63-1.89l-5.03,1.68a1,1,0,0,0-.68.94v3.1a0.986,0.986,0,0,0,.99.99h0Zm18.89,19.85a0.994,0.994,0,0,0,.99,1,6.969,6.969,0,0,0,6.96-6.95,1,1,0,0,0-1.99,0,4.961,4.961,0,0,1-4.97,4.96,1.027,1.027,0,0,0-.7.29A0.984,0.984,0,0,0,1319.59,2403.7Zm-12.07-4.96h2.18a10.886,10.886,0,0,0,2.49,5.99l-2.25,2.24a1,1,0,0,0-.27.97,0.983,0.983,0,0,0,.71.71,1,1,0,0,0,.97-0.27l2.24-2.25a10.886,10.886,0,0,0,6,2.49v2.17a3.977,3.977,0,1,0,1.99,0v-2.17a10.947,10.947,0,0,0,5.99-2.48l2.25,2.24a1,1,0,0,0,1.41-1.41l-2.25-2.24a10.886,10.886,0,0,0,2.49-5.99h2.18a3.972,3.972,0,1,0,0-1.98h-2.18a10.826,10.826,0,0,0-2.49-5.99l2.25-2.25a0.994,0.994,0,0,0-1.41-1.4l-2.24,2.24a10.9,10.9,0,0,0-6-2.48v-2.18a3.975,3.975,0,1,0-1.99,0v2.18a10.873,10.873,0,0,0-6,2.48l-2.24-2.24a1,1,0,0,0-1.4.01,0.99,0.99,0,0,0-.01,1.39l2.25,2.24a10.886,10.886,0,0,0-2.49,6h-2.18a3.972,3.972,0,1,0,0,1.98h0Zm15.05,15.88a1.985,1.985,0,1,1-1.99-1.98A1.989,1.989,0,0,1,1322.57,2414.62Zm14.91-18.86a1.985,1.985,0,1,1-1.99,1.99A1.989,1.989,0,0,1,1337.48,2395.76Zm-18.88-14.89a1.985,1.985,0,1,1,1.98,1.99A1.985,1.985,0,0,1,1318.6,2380.87Zm1.98,7.94a8.935,8.935,0,1,1-8.94,8.94A8.945,8.945,0,0,1,1320.58,2388.81Zm-16.89,10.92a1.985,1.985,0,1,1,1.98-1.98A1.987,1.987,0,0,1,1303.69,2399.73Zm13.91-6.95a1,1,0,1,1,0,1.99A1,1,0,0,1,1317.6,2392.78Zm1.99,2.98a1,1,0,1,1-.99,1A0.994,0.994,0,0,1,1319.59,2395.76Zm-3.98,0a1,1,0,1,1,0,1.99A1,1,0,0,1,1315.61,2395.76Z" transform="translate(-1295.72 -2367.97)"/>
</svg>
