<svg xmlns="http://www.w3.org/2000/svg" width="55.781" height="59.56" viewBox="0 0 55.781 59.56">
  <defs>
    <style>
      .cls-1 {
        fill: #d1bc9d;
        fill-rule: evenodd;
      }
    </style>
  </defs>
  <path id="icon1" class="cls-1" d="M785.444,2368.28a14.3,14.3,0,0,0-8.193,6.03,11.925,11.925,0,0,0-1.859,6.48,11.421,11.421,0,0,0,1.168,6.17c0.281,0.59.518,1.11,0.518,1.15a2.108,2.108,0,0,1-.691.47,13.4,13.4,0,0,0-3.978,3.37,13.58,13.58,0,0,0-2.9,8.38,12.451,12.451,0,0,0,4,9.42,12.763,12.763,0,0,0,6.485,3.67c2.658,0.63,7,.13,8.343-0.95a0.8,0.8,0,0,0,.325-0.97c-0.195-.78-0.952-0.93-2.227-0.48a13.693,13.693,0,0,1-5.728.35,11.525,11.525,0,0,1-8.711-8.25,13.254,13.254,0,0,1,.021-5.83,11.6,11.6,0,0,1,5.253-6.74l1.124-.63,0.519,0.56a1.023,1.023,0,0,0,1.686.18c0.54-.59.475-0.82-0.584-2.16a10.7,10.7,0,0,1-2.507-7.15,10.312,10.312,0,0,1,1.318-5.44,11.136,11.136,0,0,1,9.814-5.81,10.92,10.92,0,0,1,6.744,2.09l0.692,0.54-1,1.21a12.746,12.746,0,0,0-2.356,4.54,0.963,0.963,0,0,0,1.038,1.33c0.519,0,.67-0.12.951-0.82a12.678,12.678,0,0,1,5.75-6.8,11.063,11.063,0,0,1,13.056,2.12,10.4,10.4,0,0,1,3.329,7.92c0,1.75-.13,2.4-0.454,2.21a1.037,1.037,0,0,0-.757.23,0.871,0.871,0,0,0-.475.93c0.043,0.48.345,0.72,1.686,1.39a13.465,13.465,0,0,1,5.014,4.83,11.458,11.458,0,0,1-1.945,13.2l-1.189,1.21-0.432-.84a5.348,5.348,0,0,0-2.529-2.55c-1.492-.76-2.313-0.84-2.81-0.35-0.8.8-.433,1.38,1.34,2.03a3.756,3.756,0,0,1,2.378,4.58,3.692,3.692,0,0,1-2.075,2.92c-1.405.65-2.076,0.54-3.048-.46-0.93-.95-1.578-1.08-2.119-0.47-0.518.58-.475,0.75,0.519,1.9a3.863,3.863,0,0,1,1.275,3.2,4.385,4.385,0,0,1-3.7,4.32c-0.778.12-.8,0.12-1.037-0.85-0.281-1.12-.908-1.55-1.643-1.08-0.368.24-.433,0.5-0.433,1.97a4.966,4.966,0,0,1-.453,2.57,4.574,4.574,0,0,1-6.809,1.25,1.026,1.026,0,0,0-1.233-.37,0.845,0.845,0,0,0-.648.89c-0.065.6,0.065,0.78,0.821,1.34a5.957,5.957,0,0,0,4.388,1.27,6.445,6.445,0,0,0,5.642-3.88,1.267,1.267,0,0,1,1.362-.93,7.677,7.677,0,0,0,4.021-1.93,5.784,5.784,0,0,0,1.837-4.38l0.086-1.75,0.93-.24a6.707,6.707,0,0,0,3.61-2.61,7.686,7.686,0,0,0,.843-2.33,2.208,2.208,0,0,1,.5-1.34c0.475,0,2.075-1.38,3.069-2.64a15.6,15.6,0,0,0,2.659-5.53,16.324,16.324,0,0,0-.086-5.98c-0.757-2.96-3.2-6.52-5.4-7.88l-0.735-.46,0.129-2.33a13.473,13.473,0,0,0-14.093-14.42,12.959,12.959,0,0,0-5.966,1.74l-1.189.72-0.757-.63a16.243,16.243,0,0,0-5.058-2.44A17.023,17.023,0,0,0,785.444,2368.28Zm16.06,18.73c-0.821.41-2.14,3.17-2.334,4.88l-0.151,1.38-1.189.3a9.232,9.232,0,0,0-6.766,7.71c-0.3,2.03-.087,2.81.778,2.9,0.951,0.11,1.167-.24,1.275-1.99a7.012,7.012,0,0,1,4.756-6.37,7.7,7.7,0,0,1,1.362-.39c0.021,0.02.324,0.69,0.691,1.47a9.05,9.05,0,0,0,2.7,3.45,1.122,1.122,0,0,0,1.47-.92,3.338,3.338,0,0,0-.843-1.37,6.574,6.574,0,0,1-1.924-4.12,6.719,6.719,0,0,1,.952-4.54c0.821-1.36.864-1.92,0.194-2.37A0.768,0.768,0,0,0,801.5,2387.01Zm-6.42,22.5a6.7,6.7,0,0,0-4.431,3.65,7.9,7.9,0,0,0-.324,4.95l0.324,0.97-0.951.26a6.7,6.7,0,0,0-4.41,4.15c-0.259.73-.259,0.84,0.109,1.25,0.735,0.8,1.426.49,2.1-.91a3.987,3.987,0,0,1,3.524-2.5,3.906,3.906,0,0,1,2.529.58c1.859,0.93,2.767,1.06,3.285.47,0.714-.77.325-1.44-1.059-1.85a4.653,4.653,0,0,1-3.566-4.47,4.7,4.7,0,0,1,5.014-4.71,1.008,1.008,0,0,0,1.254-1C798.478,2409.34,796.987,2408.97,795.084,2409.51Z" transform="translate(-769.5 -2367.97)"/>
</svg>
